<svg width="140" height="129" viewBox="0 0 140 129" fill="none" xmlns="http://www.w3.org/2000/svg">
<path d="M120.796 3H131.039C134.112 3 136.16 5.13531 136.16 8.33827V93.7505C136.16 96.9535 134.112 99.0888 131.039 99.0888H8.12155C5.04862 99.0888 3 96.9535 3 93.7505V8.33827C3 5.13531 5.04862 3 8.12155 3H18.3647" stroke="#F3F3F3" stroke-width="6" stroke-miterlimit="13.7143" stroke-linecap="round" stroke-linejoin="round"/>
<path d="M59.3377 99.0889L49.0947 125.78" stroke="#F3F3F3" stroke-width="6" stroke-miterlimit="13.7143" stroke-linecap="round" stroke-linejoin="round"/>
<path d="M79.8223 99.0889L90.0654 125.78" stroke="#F3F3F3" stroke-width="6" stroke-miterlimit="13.7143" stroke-linecap="round" stroke-linejoin="round"/>
<path d="M38.8506 125.78H100.309" stroke="#F3F3F3" stroke-width="6" stroke-miterlimit="13.7143" stroke-linecap="round" stroke-linejoin="round"/>
<path d="M69.5811 3V19.0152" stroke="#F3F3F3" stroke-width="6" stroke-miterlimit="13.7143" stroke-linejoin="round"/>
<path d="M38.8506 22.2179L52.1667 29.6919" stroke="#F3F3F3" stroke-width="6" stroke-miterlimit="13.7143" stroke-linejoin="round"/>
<path d="M38.8506 59.5859L52.1667 51.0441" stroke="#F3F3F3" stroke-width="6" stroke-miterlimit="13.7143" stroke-linejoin="round"/>
<path d="M69.5811 77.736V61.7216" stroke="#F3F3F3" stroke-width="6" stroke-miterlimit="13.7143" stroke-linejoin="round"/>
<path d="M101.334 59.5859L88.0176 51.0441" stroke="#F3F3F3" stroke-width="6" stroke-miterlimit="13.7143" stroke-linejoin="round"/>
<path d="M101.334 22.2179L88.0176 29.6919" stroke="#F3F3F3" stroke-width="6" stroke-miterlimit="13.7143" stroke-linejoin="round"/>
<path d="M48.0703 26.4886V52.1124L69.5809 64.9243L90.0672 52.1124V26.4886L69.5809 13.6768L48.0703 26.4886Z" stroke="#F3F3F3" stroke-width="6" stroke-miterlimit="13.7143" stroke-linejoin="round"/>
</svg>
