<svg width="138" height="135" viewBox="0 0 138 135" fill="none" xmlns="http://www.w3.org/2000/svg">
<path d="M48.6929 52.593C61.591 52.593 72.047 41.6947 72.047 28.2509C72.047 14.8071 61.591 3.90869 48.6929 3.90869C35.7948 3.90869 25.3389 14.8071 25.3389 28.2509C25.3389 41.6947 35.7948 52.593 48.6929 52.593Z" stroke="#F3F3F3" stroke-width="6" stroke-miterlimit="13.7143" stroke-linecap="round" stroke-linejoin="round"/>
<path d="M94.3854 131.969H3V121.385C3 94.9269 23.3079 73.76 48.6927 73.76C74.0775 73.76 94.3854 94.9269 94.3854 121.385V131.969Z" stroke="#F3F3F3" stroke-width="6" stroke-miterlimit="13.7143" stroke-linecap="round" stroke-linejoin="round"/>
<path d="M89.3076 4.96643C101.492 4.96643 111.646 15.55 111.646 29.3086C111.646 43.0672 101.492 53.6508 89.3076 53.6508" stroke="#F3F3F3" stroke-width="6" stroke-miterlimit="13.7143" stroke-linecap="round" stroke-linejoin="round"/>
<path d="M105.554 75.8762C122.815 83.2847 135 100.218 135 120.327V131.969H119.769" stroke="#F3F3F3" stroke-width="6" stroke-miterlimit="13.7143" stroke-linecap="round" stroke-linejoin="round"/>
</svg>
