<svg width="109" height="106" viewBox="0 0 109 106" fill="none" xmlns="http://www.w3.org/2000/svg">
<path d="M22.8076 53.3912V33.401C22.8076 16.4863 37.0692 3.41577 54.5 3.41577C71.9309 3.41577 86.1925 16.4863 86.1925 33.401V53.3912" stroke="#E5E5E5" stroke-width="6" stroke-miterlimit="13.7143" stroke-linecap="round" stroke-linejoin="round"/>
<path d="M10.9231 41.8584H18.8462C21.2232 41.8584 22.8078 43.3961 22.8078 45.7027V68.7683C22.8078 71.0749 21.2232 72.6126 18.8462 72.6126H10.9231C6.16925 72.6126 3 69.5372 3 64.9241V49.547C3 44.9338 6.16925 41.8584 10.9231 41.8584Z" stroke="#E5E5E5" stroke-width="6" stroke-miterlimit="13.7143" stroke-linecap="round" stroke-linejoin="round"/>
<path d="M98.0768 72.6126H90.1537C87.7768 72.6126 86.1921 71.0749 86.1921 68.7683V45.7027C86.1921 43.3961 87.7768 41.8584 90.1537 41.8584H98.0768C102.831 41.8584 106 44.9338 106 49.547V64.9241C106 68.7683 102.038 72.6126 98.0768 72.6126Z" stroke="#E5E5E5" stroke-width="6" stroke-miterlimit="13.7143" stroke-linecap="round" stroke-linejoin="round"/>
<path d="M70.3462 93.3715C79.0616 93.3715 86.1924 86.4519 86.1924 77.9945V61.0798" stroke="#E5E5E5" stroke-width="6" stroke-miterlimit="13.7143" stroke-linecap="round" stroke-linejoin="round"/>
<path d="M70.3465 93.3716C70.3465 98.7536 65.5926 102.598 60.0464 102.598H48.1618C42.6156 102.598 38.6541 97.9847 38.6541 93.3716C38.6541 88.7584 43.4079 84.1453 48.1618 84.1453H60.0464C65.5926 84.1453 70.3465 88.7584 70.3465 93.3716Z" stroke="#E5E5E5" stroke-width="6" stroke-miterlimit="13.7143" stroke-linecap="round" stroke-linejoin="round"/>
</svg>
