<svg width="114" height="139" viewBox="0 0 114 139" fill="none" xmlns="http://www.w3.org/2000/svg">
<path d="M35.4183 47.0866L18.4611 50.5341C11.6782 51.9131 8.03312 57.1455 9.34841 63.615L13.7327 85.1803C15.048 91.6499 20.4468 95.0436 27.2297 93.6646L44.187 90.2171L35.4183 47.0866Z" stroke="#E5E5E5" stroke-width="6" stroke-miterlimit="13.7143" stroke-linecap="round" stroke-linejoin="round"/>
<path d="M44.1888 90.2172L94.4157 111.445C98.2456 112.912 102.768 111.993 105.94 110.225C110.023 107.149 111.627 103.455 110.75 99.1419L93.2122 12.8799C92.3353 8.56684 89.4167 5.79168 85.5868 4.32463C81.7569 2.85758 77.4542 4.85518 74.5012 7.70123L35.42 47.0862" stroke="#E5E5E5" stroke-width="6" stroke-miterlimit="13.7143" stroke-linecap="round" stroke-linejoin="round"/>
<rect x="20" y="92" width="21" height="44" rx="5" stroke="#E5E5E5" stroke-width="6"/>
</svg>
