<svg width="101" height="106" viewBox="0 0 101 106" fill="none" xmlns="http://www.w3.org/2000/svg">
<path d="M46.8461 94.4028C71.0617 94.4028 90.6923 73.9416 90.6923 48.7014C90.6923 23.4612 71.0617 3 46.8461 3C22.6306 3 3 23.4612 3 48.7014C3 73.9416 22.6306 94.4028 46.8461 94.4028Z" stroke="#F3F3F3" stroke-width="6" stroke-miterlimit="13.7143" stroke-linecap="round" stroke-linejoin="round"/>
<path d="M77.5386 80.6923L98.0001 102.02" stroke="#F3F3F3" stroke-width="6" stroke-miterlimit="13.7143" stroke-linecap="round" stroke-linejoin="round"/>
<path d="M46.8467 29.6594V18.2339" stroke="#F3F3F3" stroke-width="6" stroke-miterlimit="13.7143" stroke-linecap="round" stroke-linejoin="round"/>
<path d="M35.8843 60.1264C35.8843 66.2199 40.9997 67.7432 46.8458 67.7432C52.692 67.7432 57.8074 67.7432 57.8074 60.1264C57.8074 48.7012 35.8843 48.7012 35.8843 37.276C35.8843 29.6592 40.9997 29.6592 46.8458 29.6592C52.692 29.6592 57.8074 32.7059 57.8074 37.276" stroke="#F3F3F3" stroke-width="6" stroke-miterlimit="13.7143" stroke-linecap="round" stroke-linejoin="round"/>
<path d="M46.8467 67.7434V79.1689" stroke="#F3F3F3" stroke-width="6" stroke-miterlimit="13.7143" stroke-linecap="round" stroke-linejoin="round"/>
</svg>
